<svg xmlns="http://www.w3.org/2000/svg" version="1.1" xmlns:xlink="http://www.w3.org/1999/xlink" xmlns:svgjs="http://svgjs.com/svgjs" width="1440" height="546" preserveAspectRatio="none" viewBox="0 0 1440 546"><g mask="url(&quot;#SvgjsMask1527&quot;)" fill="none"><path d="M1045.94 168.59 a113.37 113.37 0 1 0 226.74 0 a113.37 113.37 0 1 0 -226.74 0z" fill="rgba(28, 83, 142, 0.4)" class="triangle-float1"></path><path d="M758.19 463.03 a137.59 137.59 0 1 0 275.18 0 a137.59 137.59 0 1 0 -275.18 0z" fill="rgba(28, 83, 142, 0.4)" class="triangle-float1"></path><path d="M1168.07 165 a138.15 138.15 0 1 0 276.3 0 a138.15 138.15 0 1 0 -276.3 0z" fill="rgba(28, 83, 142, 0.4)" class="triangle-float1"></path><path d="M238.18 210.67 a158.67 158.67 0 1 0 317.34 0 a158.67 158.67 0 1 0 -317.34 0z" fill="rgba(28, 83, 142, 0.4)" class="triangle-float3"></path><path d="M694.29 96.78 a93.01 93.01 0 1 0 186.02 0 a93.01 93.01 0 1 0 -186.02 0z" fill="rgba(28, 83, 142, 0.4)" class="triangle-float1"></path><path d="M858.49 346.44 a92.14 92.14 0 1 0 184.28 0 a92.14 92.14 0 1 0 -184.28 0z" fill="rgba(28, 83, 142, 0.4)" class="triangle-float1"></path></g><defs><mask id="SvgjsMask1527"><rect width="1440" height="546" fill="#ffffff"></rect></mask><style>
            @keyframes float1 {
                0%{transform: translate(0, 0)}
                50%{transform: translate(-10px, 0)}
                100%{transform: translate(0, 0)}
            }

            .triangle-float1 {
                animation: float1 5s infinite;
            }

            @keyframes float2 {
                0%{transform: translate(0, 0)}
                50%{transform: translate(-5px, -5px)}
                100%{transform: translate(0, 0)}
            }

            .triangle-float2 {
                animation: float2 4s infinite;
            }

            @keyframes float3 {
                0%{transform: translate(0, 0)}
                50%{transform: translate(0, -10px)}
                100%{transform: translate(0, 0)}
            }

            .triangle-float3 {
                animation: float3 6s infinite;
            }
        </style></defs></svg>